<svg height="512pt" viewBox="-15 0 512 512.00084" width="512pt" xmlns="http://www.w3.org/2000/svg"><path d="m106.265625 82.621094c-20.917969-24.136719-51.542969-34.851563-81.042969-31.410156-7.007812.816406-12.804687 5.84375-14.613281 12.664062-7.597656 28.710938-1.34375 60.550781 19.570313 84.683594 23.554687 27.179687 59.421874 37.34375 92.125 29.4375 12.476562-31.246094 7.515624-68.195313-16.039063-95.375zm0 0" fill="#455a64"/><path d="m98.183594 150.132812c-17.332032-.613281-33.628906-8.375-45.007813-21.5-11.441406-13.203124-16.726562-30.453124-14.886719-47.578124 17.320313.617187 33.609376 8.375 44.980469 21.496093 11.566407 13.34375 16.765625 30.566407 14.914063 47.582031zm0 0" fill="#f09bc0"/><path d="m375.027344 82.621094c20.917968-24.136719 51.542968-34.851563 81.042968-31.410156 7.007813.816406 12.804688 5.84375 14.613282 12.664062 7.597656 28.710938 1.34375 60.550781-19.570313 84.683594-23.554687 27.179687-59.421875 37.34375-92.125 29.4375-12.476562-31.246094-7.515625-68.195313 16.039063-95.375zm0 0" fill="#455a64"/><path d="m383.109375 150.132812c17.332031-.613281 33.628906-8.375 45.007813-21.5 11.441406-13.203124 16.726562-30.453124 14.886718-47.578124-17.320312.617187-33.609375 8.375-44.980468 21.496093-11.566407 13.34375-16.765626 30.566407-14.914063 47.582031zm0 0" fill="#f09bc0"/><path d="m362.578125 61.757812c-26.808594-17.304687-66.054687-26.3125-121.929687-26.3125-55.878907 0-95.125 9.007813-121.929688 26.3125l-29.75 283.652344c31.382812 104.269532 108.902344 114.148438 139.230469 113.835938 8.296875-.089844 16.59375-.089844 24.894531 0 30.328125.3125 107.851562-9.566406 139.230469-113.835938zm0 0" fill="#efedee"/><path d="m352.320312 408.859375c0 101.621094-80.90625 95.535156-111.671874 95.535156-30.769532 0-111.675782 6.085938-111.675782-95.535156zm0 0" fill="#ed6b92"/><path d="m253.089844 459.242188c21.046875.21875 64.835937-4.46875 100.148437-42.21875 0-92.160157-83.175781-75.929688-112.59375-75.929688-29.414062 0-112.589843-16.230469-112.589843 75.929688 35.3125 37.75 79.101562 42.4375 100.148437 42.21875zm0 0" fill="#f09bc0"/><path d="m400.90625 307.28125c-2.210938 13.9375-5.121094 26.605469-8.578125 38.128906-7.667969-.40625-15.285156-1.765625-22.78125-4.117187-63.273437-19.921875-93.074219-104.28125-66.582031-188.417969 12.050781-38.25 33.667968-69.875 59.613281-91.117188 62.246094 40.15625 57.46875 125.003907 38.328125 245.523438zm0 0" fill="#546e7a"/><path d="m111.746094 341.292969c-7.492188 2.351562-15.109375 3.710937-22.777344 4.117187-3.460938-11.523437-6.371094-24.191406-8.582031-38.128906-19.140625-120.519531-23.917969-205.367188 38.332031-245.523438 25.945312 21.242188 47.558594 52.867188 59.609375 91.117188 26.492187 84.136719-3.308594 168.496094-66.582031 188.417969zm0 0" fill="#546e7a"/><path d="m199.820312 41.816406-16.050781-27.777344c-2.992187-5.183593-9.140625-7.65625-14.890625-5.984374-5.75 1.667968-9.617187 7.046874-9.371094 13.03125l1.328126 32.050781c.5625 13.554687 13.683593 22.992187 26.710937 19.207031 13.027344-3.78125 19.058594-18.78125 12.273437-30.527344zm0 0" fill="#ffd54f"/><path d="m281.476562 41.816406 16.046876-27.777344c2.996093-5.183593 9.140624-7.65625 14.890624-5.984374 5.75 1.667968 9.617188 7.046874 9.371094 13.03125l-1.328125 32.050781c-.558593 13.554687-13.683593 22.992187-26.710937 19.207031-13.027344-3.78125-19.058594-18.78125-12.269532-30.527344zm0 0" fill="#ffd54f"/><path d="m132.816406 303.730469c4.144532 0 7.5-3.355469 7.5-7.5v-18.542969c0-4.140625-3.355468-7.5-7.5-7.5-4.140625 0-7.496094 3.359375-7.496094 7.5v18.542969c0 4.144531 3.355469 7.5 7.496094 7.5zm0 0"/><path d="m178.851562 374.761719c-8.972656 1.609375-13.941406 15.769531-11.097656 31.628906 2.84375 15.863281 12.421875 27.414063 21.394532 25.804687 8.972656-1.609374 13.9375-15.769531 11.09375-31.628906s-12.421876-27.414062-21.390626-25.804687zm0 0"/><path d="m340.976562 277.6875v18.542969c0 4.144531 3.355469 7.5 7.5 7.5 4.140626 0 7.496094-3.355469 7.496094-7.5v-18.542969c0-4.140625-3.355468-7.5-7.496094-7.5-4.144531 0-7.5 3.359375-7.5 7.5zm0 0"/><path d="m302.441406 374.789062c-8.96875-1.609374-18.546875 9.941407-21.390625 25.800782-2.847656 15.863281 2.121094 30.023437 11.09375 31.632812 8.972657 1.609375 18.550781-9.945312 21.394531-25.804687s-2.125-30.023438-11.097656-31.628907zm0 0"/><path d="m24.515625 153.4375c9.773437 11.277344 22.003906 20.257812 35.605469 26.207031-.269532 25.699219 2.453125 63.253907 12.859375 128.777344 2.183593 13.761719 5.144531 26.921875 8.804687 39.113281 9.066406 30.113282 22.503906 54.816406 40.121094 73.886719 2.714844 38.894531 18.441406 65.605469 46.78125 79.398437 20.707031 10.082032 44.253906 11.109376 60.699219 11.109376 22.09375 0 44.621093 1.042968 66.15625-4.789063 3.996093-1.085937 6.359375-5.203125 5.277343-9.199219-1.082031-4-5.203124-6.363281-9.199218-5.277344-18.324219 4.960938-37.234375 4.058594-56.011719 4.226563-30.164063.277344-83.976563.773437-96.484375-59.648437.066406.050781.132812.097656.199219.152343 2.660156 2.066407 5.40625 4.03125 8.214843 5.894531 28.921876 19.199219 58.839844 23.195313 77.582032 23.414063 10.296875.117187 20.605468.136719 30.90625 0 18.734375-.199219 48.730468-4.164063 77.726562-23.417969 2.8125-1.867187 5.515625-3.867187 8.214844-5.894531l.1875-.140625c-4.078125 19.628906-12.839844 34.429688-26.160156 44.128906-3.347656 2.4375-4.085938 7.128906-1.648438 10.476563 2.4375 3.347656 7.128906 4.085937 10.476563 1.648437 20.65625-15.039062 32.277343-39.285156 34.566406-72.089844 17.617187-19.066406 31.054687-43.769531 40.121094-73.890624 3.65625-12.191407 6.621093-25.347657 8.800781-39.101563 6.992188-44.007813 13.140625-89.398437 12.769531-128.738281 13.640625-5.953125 25.902344-14.945313 35.695313-26.246094 21.769531-25.117188 29.675781-59.328125 21.152344-91.515625-2.609376-9.871094-10.851563-17.011719-20.992188-18.195313-3.859375-.449218-7.789062-.679687-11.683594-.679687-23.753906 0-46.324218 8.210937-64.316406 23.257813-4.382812-3.929688-9.136719-7.554688-14.296875-10.882813-10.804687-6.976563-23.589844-12.667969-38.074219-16.960937l.710938-17.105469c.390625-9.457031-5.683594-17.902344-14.773438-20.539063-8.949218-2.601562-18.816406 1.363282-23.476562 9.433594l-11.171875 19.34375c-12.113281-1.117188-25.273438-1.679688-39.207031-1.679688-13.933594 0-27.097657.5625-39.210938 1.679688l-11.171875-19.34375c-3.652344-6.324219-10.457031-10.25-17.757813-10.25-1.933593 0-3.859374.273438-5.71875.816406-9.089843 2.636719-15.164062 11.085938-14.773437 20.539063l.707031 17.105469c-14.476562 4.292968-27.265625 9.984374-38.070312 16.960937-5.15625 3.324219-9.914063 6.949219-14.300782 10.882813-17.988281-15.046876-40.558593-23.257813-64.3125-23.257813-3.894531 0-7.824218.230469-11.683593.679687-10.140625 1.183594-18.382813 8.324219-20.992188 18.191407-8.523437 32.191406-.617187 66.402343 21.152344 91.519531zm44.421875-37.007812c-1.421875 4.464843-2.625 9-3.640625 13.570312-2.3125-1.917969-4.46875-4.027344-6.453125-6.316406-8.308594-9.585938-13.007812-21.8125-13.386719-34.394532 10.585938 1.851563 20.488281 6.796876 28.328125 14.175782-1.800781 4.128906-3.414062 8.449218-4.847656 12.964844zm225.519531 329.113281c-12.265625 3.898437-25.113281 5.953125-37.980469 6.15625-10.46875.175781-21.03125.203125-31.5 0-.050781 0-.101562 0-.152343 0-12.6875-.121094-25.367188-2.257813-37.480469-5.996094-.046875-.015625-.09375-.027344-.136719-.042969-16.6875-5.242187-35.035156-14.769531-51.621093-31.71875.554687-26.355468 8.378906-44.308594 23.875-54.824218 11.722656-7.957032 27.507812-11.664063 49.679687-11.664063 10.515625 0 20.996094 1.101563 31.503906 1.101563 10.511719 0 20.992188-1.101563 31.507813-1.101563 33.6875 0 72.273437 7.648437 73.554687 66.492187-16.464843 16.828126-34.660156 26.335938-51.25 31.597657zm121.402344-316.152344c-1.996094-8.863281-4.710937-17.59375-8.351563-25.921875 7.839844-7.382812 17.742188-12.328125 28.328126-14.179688-.378907 12.582032-5.078126 24.808594-13.386719 34.394532-1.984375 2.292968-4.140625 4.398437-6.453125 6.316406-.042969-.203125-.089844-.40625-.136719-.609375zm29.398437-71.34375c3.3125 0 6.65625.191406 9.945313.578125 3.976563.460938 7.207031 3.261719 8.230469 7.132812 7.25 27.390626.527344 56.492188-17.988282 77.855469-7.007812 8.089844-15.5 14.792969-24.925781 19.730469-.019531-.351562-.046875-.699219-.070312-1.046875-.355469-5.304687-.859375-10.601563-1.5625-15.871094 5.546875-3.578125 10.550781-7.902343 14.898437-12.917969 12.664063-14.613281 18.742188-34.039062 16.675782-53.289062-.421876-3.914062-3.78125-6.839844-7.722657-6.695312-15.542969.554687-30.496093 6.363281-42.339843 16.222656-2.722657-4.46875-5.722657-8.671875-9.011719-12.617188 15.160156-12.351562 34.027343-19.082031 53.871093-19.082031zm-94.71875 25.464844c3.902344-4.292969 8.03125-8.378907 12.375-12.222657.054688-.046874.109376-.09375.160157-.140624 23.941406 17.371093 35.804687 44.636718 40.347656 73.164062.792969 4.945312 1.347656 9.929688 1.761719 14.917969 3.503906 42.160156-3.511719 95.40625-11.683594 146.839843-1.730469 10.914063-3.96875 21.410157-6.675781 31.285157-.171875-.019531-.34375-.042969-.515625-.066407-4.910156-.640624-9.785156-1.703124-14.511719-3.1875-28.296875-8.910156-50.363281-32.160156-62.132813-65.472656-12.035156-34.0625-11.871093-74.386718.457032-113.539062 8.273437-26.285156 21.847656-51.136719 40.417968-71.578125zm-62.570312-37.980469s16.027344-27.742188 16.046875-27.777344c1.253906-2.167968 3.910156-3.234375 6.308594-2.535156 2.441406.707031 4.074219 2.976562 3.96875 5.519531l-1.328125 32.050781c0 .023438-.003906.042969-.003906.0625-.304688 8.390626-9.132813 14.578126-17.125 12.253907-8.214844-2.386719-12.152344-12.15625-7.867188-19.574219zm-117-30.3125c2.40625-.699219 5.054688.363281 6.308594 2.535156l16.046875 27.777344c3.554687 6.15625 1.535156 14.371094-4.609375 18.121094-4.5625 2.785156-10.480469 2.585937-14.820313-.535156-5.726562-4.117188-5.582031-10.753907-5.847656-17.085938l-1.046875-25.296875c-.105469-2.539063 1.527344-4.808594 3.96875-5.515625zm-70.722656 73.109375c5.171875-6.503906 11.234375-12.292969 17.976562-17.1875.011719.011719.023438.023437.035156.03125.191407.167969.371094.34375.558594.511719 16.035156 14.285156 28.960938 31.707031 38.875 50.714844 3.730469 7.148437 7.238282 14.609374 9.878906 22.242187.007813.015625.015626.027344.019532.042969 1.421875 3.789062 5.859375 5.816406 9.652344 4.394531 3.816406-1.429687 5.808593-5.871094 4.382812-9.675781-8.269531-22.082032-20.050781-42.90625-35.304688-60.921875-4.421874-5.226563-9.152343-10.222657-14.148437-14.90625-.214844-.203125-.425781-.417969-.644531-.621094 6.609375-3.445313 13.910156-6.453125 21.84375-9 .007812.117187.023437.226563.03125.339844.257812 3.570312 1.164062 7.042969 2.71875 10.28125 5.871094 12.261719 20.46875 18.703125 33.519531 14.9375 14.734375-4.28125 23.738281-20.671875 19.300781-35.40625-.011718-.03125-.015625-.058594-.023437-.085938 9.941406-.738281 20.570312-1.109375 31.730469-1.109375 11.160156 0 21.785156.371094 31.730468 1.109375-.011718.03125-.015625.0625-.023437.09375-1.835938 6.085938-1.484375 12.816407.867187 18.714844 3.101563 7.71875 9.292969 13.574219 17.101563 16.253906 10.691406 3.671875 22.832031.578125 30.386719-7.832031 4.25-4.738281 6.824218-10.945312 7.214843-17.296875 7.933594 2.546875 15.238281 5.558594 21.851563 9.003906-.089844.085938-.179688.175781-.269532.261719-25.210937 23.652344-43.347656 54.5-53.695312 87.367188-13.296875 42.234374-13.402344 85.929687-.289062 123.039062 12.089843 34.222656 34.078124 59.207031 62.492187 71.347656 7.773437 3.320313 15.972656 5.660156 24.335937 6.914063-6.324218 18.359375-14.195312 33.386719-22.964843 45.675781-3.382813-22.933594-13.136719-39.996094-29.132813-50.855469-18.820312-12.773437-42.171875-14.25-58.101562-14.25-10.511719 0-20.996094 1.097657-31.503906 1.101563-10.507813 0-20.988282-1.101563-31.507813-1.101563-15.925781 0-39.28125 1.476563-58.101563 14.25-15.992187 10.855469-25.746093 27.917969-29.128906 50.851563-8.769531-12.289063-16.640625-27.316406-22.964844-45.671875.195313-.03125.386719-.070313.578126-.097657 21.71875-3.410156 41.925781-14.277343 57.285156-30.148437 14.042968-14.515625 24.667968-33.308594 31.203125-54.792969 4.898437-16.113281 7.496093-33.738281 7.503906-52.210937.007813-14.777344-1.644531-30.097657-5.09375-45.613281-.886719-3.972657-4.976563-6.574219-8.949219-5.691407-3.988281.890625-6.578125 4.960938-5.691406 8.949219 10.6875 48.050781 4.628906 107.003906-33.214844 142.316406-13.039062 12.167969-29.714844 20.371094-47.578125 22.691406-.171875.019532-.34375.046876-.519531.066407-2.703125-9.875-4.941406-20.371094-6.675781-31.285157-8.167969-51.4375-15.183594-104.679687-11.679688-146.84375 2.078125-25.007812 8.214844-50.878906 24.132813-70.898437zm-82.386719-22.570313c1.027344-3.871093 4.257813-6.671874 8.234375-7.132812 3.285156-.386719 6.632812-.578125 9.945312-.578125 19.839844 0 38.710938 6.730469 53.867188 19.082031-3.289062 3.945313-6.289062 8.148438-9.007812 12.617188-11.847657-9.859375-26.800782-15.667969-42.339844-16.222656-3.9375-.144532-7.304688 2.78125-7.726563 6.691406-2.066406 19.253906 4.011719 38.675781 16.675781 53.292968 4.347657 5.015626 9.351563 9.339844 14.898438 12.917969-.3125 2.332031-.832031 7.109375-.835938 7.164063-.3125 3.074218-.59375 6.300781-.828124 9.738281-9.410157-4.9375-17.890626-11.632813-24.894532-19.714844-18.511718-21.363281-25.238281-50.46875-17.988281-77.855469zm0 0"/></svg>