<?xml version="1.0" encoding="iso-8859-1"?>
<!-- Generator: Adobe Illustrator 19.0.0, SVG Export Plug-In . SVG Version: 6.00 Build 0)  -->
<svg version="1.1" id="Capa_1" xmlns="http://www.w3.org/2000/svg" xmlns:xlink="http://www.w3.org/1999/xlink" x="0px" y="0px"
	 viewBox="0 0 512 512" style="enable-background:new 0 0 512 512;" xml:space="preserve">
<path style="fill:#E5E5E5;" d="M504.652,297.258c4.71,4.684,7.357,11.058,7.348,17.707c-0.027,6.64-2.665,12.997-7.348,17.707
	c-14.679,14.635-38.442,14.635-53.121,0H424.97v-61.975h26.561l4.427-4.427c12.545-12.616,32.581-13.767,46.481-2.656l0.354,0.266
	c9.677,7.773,11.226,21.921,3.444,31.607C505.741,296.098,505.209,296.691,504.652,297.258z"/>
<path style="fill:#811600;" d="M424.97,270.697v61.975c0,4.887-3.966,8.854-8.854,8.854h-8.942
	c-12.731-0.044-25.064,4.444-34.794,12.661c-67.349,56.539-152.44,87.597-240.374,87.739v-0.177
	c68.881-3.01,123.95-84.994,123.95-185.747S200.887,73.263,132.006,70.253v-0.177c111.023,0,204.871,117.841,240.196,168.748
	c9.969,14.414,26.384,23.019,43.914,23.019C421.003,261.843,424.97,265.81,424.97,270.697L424.97,270.697z"/>
<path style="fill:#A11C00;" d="M132.006,70.253c68.881,3.01,123.95,84.994,123.95,185.747s-55.069,182.737-123.95,185.747
	c-1.355,0.151-2.709,0.204-4.073,0.177C57.282,441.924,0,358.701,0,256S57.282,70.076,127.934,70.076
	C129.297,70.049,130.652,70.102,132.006,70.253z M220.542,256c0-81.541-42.408-150.51-92.608-150.51S35.414,174.459,35.414,256
	s42.408,150.51,92.519,150.51S220.542,337.541,220.542,256z"/>
<path style="fill:#FF7671;" d="M127.934,105.49c50.2,0,92.608,68.969,92.608,150.51s-42.408,150.51-92.608,150.51
	S35.414,337.541,35.414,256S77.823,105.49,127.934,105.49z M140.86,256c0-14.697-7.968-26.561-17.707-26.561
	S105.446,241.303,105.446,256s7.968,26.561,17.707,26.561S140.86,270.697,140.86,256z"/>
<ellipse style="fill:#811600;" cx="123.153" cy="256" rx="17.707" ry="26.561"/>
<g>
	<path style="fill:#FF7671;" d="M284.429,354.133l-16.76-5.737c6.95-20.505,11.474-41.753,13.475-63.312
		c0.912-9.128,1.372-18.902,1.372-29.084h17.707c0,10.775-0.496,21.142-1.461,30.801
		C296.629,309.732,291.821,332.326,284.429,354.133z"/>
	<path style="fill:#FF7671;" d="M266.987,393.602l-15.511-8.544c3.453-6.251,6.481-12.395,9.013-18.265l16.255,7.021
		C273.99,380.189,270.706,386.855,266.987,393.602z"/>
</g>
<g>
</g>
<g>
</g>
<g>
</g>
<g>
</g>
<g>
</g>
<g>
</g>
<g>
</g>
<g>
</g>
<g>
</g>
<g>
</g>
<g>
</g>
<g>
</g>
<g>
</g>
<g>
</g>
<g>
</g>
</svg>
